<!--
  SPDX-FileCopyrightText: Google LLC
  SPDX-License-Identifier: Apache-2.0
  Source artwork: Material Symbols Outlined, https://fonts.google.com/icons
  Prismenu adaptations: local asset name and SVG wrapper/currentColor integration.
  Original download revision was not recorded; source attribution is retained.
  Attribution and complete license: package/THIRD_PARTY_NOTICES.md and
  package/LICENSES/Apache-2.0.txt (relative to the source repository's prismenu/).
  This notice was added by Prismenu Contributors on 2026-10-07.
-->
<svg xmlns="http://www.w3.org/2000/svg" height="24" viewBox="0 -960 960 960" width="24"><path fill="currentColor" d="M160-120q-33 0-56.5-23.5T80-200v-440q0-33 23.5-56.5T160-720h160v-80q0-33 23.5-56.5T400-880h160q33 0 56.5 23.5T640-800v80h160q33 0 56.5 23.5T880-640v440q0 33-23.5 56.5T800-120H160Zm0-80h640v-440H160v440Zm240-520h160v-80H400v80ZM160-200v-440 440Z"/></svg>